<svg xmlns="http://www.w3.org/2000/svg" viewBox="0 0 27.95 43.27"><defs><style>.cls-1{fill:#fff;}</style></defs><title>audio_on</title><g id="Layer_2" data-name="Layer 2"><g id="Layer_1-2" data-name="Layer 1"><path class="cls-1" d="M24.52,8.51a25.28,25.28,0,0,0-7.39-8,3,3,0,0,0-3.41,4.94,19.08,19.08,0,0,1,5.62,6.07A18.89,18.89,0,0,1,21.28,26a18.94,18.94,0,0,1-8.8,11.67A3,3,0,0,0,14,43.27a3,3,0,0,0,1.51-.41A25.13,25.13,0,0,0,24.52,8.51Z"/><path class="cls-1" d="M10.81,12.63A18,18,0,0,0,5.54,7a3,3,0,1,0-3.39,4.95,11.88,11.88,0,0,1,3.49,3.74A11.82,11.82,0,0,1,1.47,31.87,3,3,0,0,0,3,37.46,3,3,0,0,0,4.53,37,17.84,17.84,0,0,0,10.81,12.63Z"/></g></g></svg>