<svg width="11" height="10" viewBox="0 0 11 10" xmlns="http://www.w3.org/2000/svg">
<path fill-rule="evenodd" clip-rule="evenodd" d="M6.61112 0.146447C6.41586 -0.0488155 6.09928 -0.0488155 5.90402 0.146447C5.70875 0.341709 5.70875 0.658291 5.90402 0.853553L9.29302 4.24255H0.5C0.223858 4.24255 0 4.46641 0 4.74255C0 5.0187 0.223858 5.24255 0.5 5.24255H9.29316L5.90402 8.63169C5.70875 8.82696 5.70875 9.14354 5.90402 9.3388C6.09928 9.53406 6.41586 9.53406 6.61112 9.3388L10.8537 5.09618C10.9475 5.00241 11.0002 4.87523 11.0002 4.74262C11.0002 4.61002 10.9475 4.48284 10.8537 4.38907L6.61112 0.146447Z" />
</svg>
