<svg width="25" height="24" viewBox="0 0 25 24" fill="none" xmlns="http://www.w3.org/2000/svg">
<path fill-rule="evenodd" clip-rule="evenodd" d="M24.5 12C24.5 18.6274 19.1274 24 12.5 24C5.87258 24 0.5 18.6274 0.5 12C0.5 5.37258 5.87258 0 12.5 0C19.1274 0 24.5 5.37258 24.5 12ZM12.9043 7.40304C13.0995 7.20778 13.4161 7.20778 13.6114 7.40304L17.854 11.6457C17.9478 11.7394 18.0004 11.8666 18.0004 11.9992C18.0004 12.1318 17.9478 12.259 17.854 12.3528L13.6114 16.5954C13.4161 16.7907 13.0995 16.7907 12.9043 16.5954C12.709 16.4001 12.709 16.0835 12.9043 15.8883L16.2934 12.4991H7.50024C7.2241 12.4991 7.00024 12.2753 7.00024 11.9991C7.00024 11.723 7.2241 11.4991 7.50024 11.4991H16.2933L12.9043 8.11015C12.709 7.91488 12.709 7.5983 12.9043 7.40304Z" fill="white"/>
</svg>
